<svg width="24" height="24" viewBox="0 0 24 24" fill="none" xmlns="http://www.w3.org/2000/svg">
<path fill-rule="evenodd" clip-rule="evenodd" d="M12.3641 1.85022e-08C12.0658 -3.97528e-05 11.771 0.0640385 11.4997 0.187892C11.2284 0.311746 10.9868 0.492481 10.7915 0.717848C10.5961 0.943216 10.4515 1.20795 10.3674 1.49411C10.2832 1.78026 10.2616 2.08116 10.304 2.3764C8.79598 2.82163 7.47246 3.74274 6.53109 5.00216C5.58971 6.26158 5.08099 7.79173 5.08091 9.36409V17.6877H4.04045C3.76451 17.6877 3.49987 17.7973 3.30474 17.9925C3.10962 18.1876 3 18.4522 3 18.7282C3 19.0041 3.10962 19.2688 3.30474 19.4639C3.49987 19.659 3.76451 19.7686 4.04045 19.7686H20.6877C20.9637 19.7686 21.2283 19.659 21.4234 19.4639C21.6186 19.2688 21.7282 19.0041 21.7282 18.7282C21.7282 18.4522 21.6186 18.1876 21.4234 17.9925C21.2283 17.7973 20.9637 17.6877 20.6877 17.6877H19.6473V9.36409C19.6472 7.79173 19.1385 6.26158 18.1971 5.00216C17.2557 3.74274 15.9322 2.82163 14.4242 2.3764C14.4665 2.08116 14.4449 1.78026 14.3608 1.49411C14.2767 1.20795 14.1321 0.943216 13.9367 0.717848C13.7413 0.492481 13.4998 0.311746 13.2285 0.187892C12.9571 0.0640385 12.6624 -3.97528e-05 12.3641 1.85022e-08ZM14.445 21.8495C14.445 22.1255 14.3354 22.3901 14.1403 22.5853C13.9451 22.7804 13.6805 22.89 13.4045 22.89H11.3236C11.0477 22.89 10.783 22.7804 10.5879 22.5853C10.3928 22.3901 10.2832 22.1255 10.2832 21.8495C10.2832 21.5736 10.3928 21.309 10.5879 21.1138C10.783 20.9187 11.0477 20.8091 11.3236 20.8091H13.4045C13.6805 20.8091 13.9451 20.9187 14.1403 21.1138C14.3354 21.309 14.445 21.5736 14.445 21.8495Z" fill="#A0AAB8"/>
</svg>
